<?xml version="1.0" encoding="UTF-8" standalone="no"?>
<svg
   xmlns:dc="http://purl.org/dc/elements/1.1/"
   xmlns:cc="http://creativecommons.org/ns#"
   xmlns:rdf="http://www.w3.org/1999/02/22-rdf-syntax-ns#"
   xmlns:svg="http://www.w3.org/2000/svg"
   xmlns="http://www.w3.org/2000/svg"
   xmlns:sodipodi="http://sodipodi.sourceforge.net/DTD/sodipodi-0.dtd"
   xmlns:inkscape="http://www.inkscape.org/namespaces/inkscape"
   id="svg8"
   version="1.1"
   viewBox="0 0 200 200"
   height="200mm"
   width="200mm"
   sodipodi:docname="flag.svg"
   inkscape:version="0.92.4 (5da689c313, 2019-01-14)">
  <sodipodi:namedview
     pagecolor="#31312f"
     bordercolor="#666666"
     borderopacity="1"
     objecttolerance="10"
     gridtolerance="10"
     guidetolerance="10"
     inkscape:pageopacity="0"
     inkscape:pageshadow="2"
     inkscape:window-width="1920"
     inkscape:window-height="1017"
     id="namedview5312"
     showgrid="false"
     inkscape:zoom="0.4204826"
     inkscape:cx="448.37711"
     inkscape:cy="488.7986"
     inkscape:window-x="-8"
     inkscape:window-y="-8"
     inkscape:window-maximized="1"
     inkscape:current-layer="layer1" />
  <defs
     id="defs2" />
  <metadata
     id="metadata5">
    <rdf:RDF>
      <cc:Work
         rdf:about="">
        <dc:format>image/svg+xml</dc:format>
        <dc:type
           rdf:resource="http://purl.org/dc/dcmitype/StillImage" />
        <dc:title></dc:title>
      </cc:Work>
    </rdf:RDF>
  </metadata>
  <g
     id="layer1"
     transform="matrix(1.7193538,0,0,1.6148082,-92.145735,-101.69825)">
    <g
       transform="translate(-46.504898,14.967094)"
       id="g4528"
       style="fill:#ffffff;fill-opacity:1;stroke:#ffffff;stroke-opacity:1">
      <path
         style="color:#000000;font-style:normal;font-variant:normal;font-weight:normal;font-stretch:normal;font-size:medium;line-height:normal;font-family:sans-serif;font-variant-ligatures:normal;font-variant-position:normal;font-variant-caps:normal;font-variant-numeric:normal;font-variant-alternates:normal;font-feature-settings:normal;text-indent:0;text-align:start;text-decoration:none;text-decoration-line:none;text-decoration-style:solid;text-decoration-color:#000000;letter-spacing:normal;word-spacing:normal;text-transform:none;writing-mode:lr-tb;direction:ltr;text-orientation:mixed;dominant-baseline:auto;baseline-shift:baseline;text-anchor:start;white-space:normal;shape-padding:0;clip-rule:nonzero;display:inline;overflow:visible;visibility:visible;opacity:1;isolation:auto;mix-blend-mode:normal;color-interpolation:sRGB;color-interpolation-filters:linearRGB;solid-color:#000000;solid-opacity:1;vector-effect:none;fill:#ffffff;fill-opacity:1;fill-rule:nonzero;stroke:#ffffff;stroke-width:5.66499996;stroke-linecap:butt;stroke-linejoin:round;stroke-miterlimit:4;stroke-dasharray:none;stroke-dashoffset:0;stroke-opacity:1;paint-order:stroke fill markers;color-rendering:auto;image-rendering:auto;shape-rendering:auto;text-rendering:auto;enable-background:accumulate"
         d="m 144.91797,66.556641 c -5.42693,-0.101486 -10.28772,1.131692 -14.25977,4.378906 l -0.0371,0.03125 -16.3125,95.730473 0.26172,0.0449 16.29297,-95.626956 c 3.90903,-3.179409 8.6811,-4.393347 14.04883,-4.292968 5.38405,0.100684 11.36079,1.523034 17.62891,3.599609 12.43895,4.120926 26.01465,10.801363 38.42382,14.800781 l -9.12109,4.544922 7.63672,7.958984 -9.7168,4.927738 4.94531,10.83203 c -16.02738,-4.04203 -31.5513,-7.52196 -43.0039,-8.83594 -5.75904,-0.66074 -10.48996,-0.77791 -13.75781,-0.13867 -1.63393,0.31962 -2.90397,0.82674 -3.75391,1.5664 -0.84994,0.73967 -1.26787,1.72084 -1.17774,2.92188 l 0.26368,-0.0195 c -0.0849,-1.13118 0.29166,-2.00825 1.08789,-2.70117 0.79622,-0.69293 2.02363,-1.19342 3.63086,-1.50782 3.21446,-0.62879 7.93155,-0.51864 13.67773,0.14063 11.49236,1.31854 27.112,4.82205 43.23242,8.89258 l 0.26758,0.0664 -5.0664,-11.0957 9.80859,-4.974609 -7.63477,-7.957031 9.36914,-4.667969 -0.31054,-0.09961 C 188.88343,81.097597 175.18802,74.331947 162.625,70.169922 156.34349,68.088909 150.3449,66.658127 144.91797,66.556641 Z"
         id="path12"
         inkscape:connector-curvature="0" />
      <ellipse
         id="path14"
         cx="133.39655"
         cy="57.359386"
         rx="6.9037271"
         ry="7.2101378"
         style="stroke-width:0.27390963;fill:#ffffff;fill-opacity:1;stroke:#ffffff;stroke-opacity:1" />
    </g>
  </g>
</svg>
